<?xml version="1.0" encoding="utf-8"?>
<!-- Generator: Adobe Illustrator 17.0.0, SVG Export Plug-In . SVG Version: 6.00 Build 0)  -->
<!DOCTYPE svg PUBLIC "-//W3C//DTD SVG 1.1//EN" "http://www.w3.org/Graphics/SVG/1.1/DTD/svg11.dtd">
<svg version="1.1" id="Layer_1" xmlns="http://www.w3.org/2000/svg" xmlns:xlink="http://www.w3.org/1999/xlink" x="0px" y="0px"
	 width="150px" height="150px" viewBox="0 0 150 150" enable-background="new 0 0 150 150" xml:space="preserve">
<g>
	<g>
		<path fill="#7A7A7A" d="M56.186,14h-9.375v28.124h9.375V14z M103.134,14h-9.376v28.124h9.376V14z M114.41,22.924h-6.589v23.889
			h-18.75V22.924H60.874v23.889h-18.75V22.924h-6.453c-8.908,0-16.968,7.228-16.968,16.132v80.683
			c0,8.904,8.059,16.261,16.968,16.261h78.739c8.908,0,16.886-7.356,16.886-16.261V39.056
			C131.296,30.152,123.318,22.924,114.41,22.924z M37.436,121.821h-9.375v-9.377h9.375V121.821z M37.436,107.753h-9.375v-9.374
			h9.375V107.753z M37.436,93.693h-9.375V84.32h9.375V93.693z M37.436,79.631h-9.375v-9.374h9.375V79.631z M51.498,121.821h-9.375
			v-9.377h9.375V121.821z M51.498,107.753h-9.375v-9.374h9.375V107.753z M51.498,93.693h-9.375V84.32h9.375V93.693z M51.498,79.631
			h-9.375v-9.374h9.375V79.631z M65.562,121.821h-9.376v-9.377h9.376V121.821z M65.562,107.753h-9.376v-9.374h9.376V107.753z
			 M65.562,93.693h-9.376V84.32h9.376V93.693z M65.562,79.631h-9.376v-9.374h9.376V79.631z M65.562,65.566h-9.376v-9.373h9.376
			V65.566z M79.624,121.821h-9.376v-9.377h9.376V121.821z M79.624,107.753h-9.376v-9.374h9.376V107.753z M79.624,93.693h-9.376
			V84.32h9.376V93.693z M79.624,79.631h-9.376v-9.374h9.376V79.631z M79.624,65.566h-9.376v-9.373h9.376V65.566z M93.686,107.753
			h-9.375v-9.374h9.375V107.753z M93.686,93.693h-9.375V84.32h9.375V93.693z M93.686,79.631h-9.375v-9.374h9.375V79.631z
			 M93.686,65.566h-9.375v-9.373h9.375V65.566z M107.749,107.753h-9.375v-9.374h9.375V107.753z M107.749,93.693h-9.375V84.32h9.375
			V93.693z M107.749,79.631h-9.375v-9.374h9.375V79.631z M107.749,65.566h-9.375v-9.373h9.375V65.566z M121.812,107.753h-9.376
			v-9.374h9.376V107.753z M121.812,93.693h-9.376V84.32h9.376V93.693z M121.812,79.631h-9.376v-9.374h9.376V79.631z M121.812,65.566
			h-9.376v-9.373h9.376V65.566z"/>
	</g>
</g>
</svg>
