<?xml version="1.0" encoding="utf-8"?>
<!-- Generator: Adobe Illustrator 16.0.0, SVG Export Plug-In . SVG Version: 6.00 Build 0)  -->
<!DOCTYPE svg PUBLIC "-//W3C//DTD SVG 1.1//EN" "http://www.w3.org/Graphics/SVG/1.1/DTD/svg11.dtd">
<svg version="1.1" id="Layer_1" xmlns="http://www.w3.org/2000/svg" xmlns:xlink="http://www.w3.org/1999/xlink" x="0px" y="0px"
	 width="150px" height="70px" viewBox="0 0 150 70" enable-background="new 0 0 150 70" xml:space="preserve">
<g>
	<path fill="#cdebfd" d="M111.172,11.095c0.646,0,1.124-0.019,1.124,0.739c0-0.214,1.445,0.815,1.433,0.813
		c0.398,0.064,2.389-0.138,2.389,0.573c0,0.554,0.168,0.295,0.574,0.16c0.316-0.105,0.43,0.104,0.728,0.104
		c0.194,0,0.749,0.279,0.949,0.349c0.495,0.174-0.173,0.797,0.599,0.797c0.431,0,0.687-0.137,1.139,0.048
		c0.281,0.115,0.117,0.265,0,0.406c-0.297,0.364-0.177,0.506-0.005,0.848c0.296,0.591,1.057,0.541,1.057,1.362
		c0,0.213,0.557,0.268,0.681,0.143c0.488-0.489,0.723-0.041,1.04,0.275c0.51,0.51,2.121-0.498,2.016,0.832
		c-0.034,0.419-0.511,0.559-0.511,0.995c0,0.208-0.078,0.571-0.033,0.78c0.097,0.458,0.725,0.385,0.725,0.929
		c0,0.339,0.479,0.771,0.598,1.098c0.051,0.142,0.144,0.271-0.129,0.37c-0.478,0.175-0.158,0.067-0.158,0.454
		c0,0.396,0.321,1.207,0.85,1.207c0.892,0-0.349,1.553,0.691,1.553c0.808,0-0.081,0.556,0.084,0.764
		c0.258,0.325,0.413-0.364,0.781-0.124c0.162,0.105-0.017,0.332-0.017,0.47c0,0.136,0.736,0.018,0.852,0.093
		c0.134,0.086-0.211,1.119-0.267,1.131c-0.258,0.057,0.083,0.938,0.287,0.938c0.385,0,0.37,0.475,0.37,0.705
		c0,0.18,0.903,0.279,0.645,0.609c-0.232,0.29-0.168,0.574-0.537,0.758c-0.438,0.221,1.025,0.891,0.12,0.891
		c-0.886,0,0.22,0.794-0.291,1.304c-0.371,0.371,0.269,0.576,0.429,0.76c0.222,0.258-0.465,0.635-0.079,0.945
		c0.405,0.326,0.687,0.668,0.884,0.071c0.063-0.192,0.16-0.533,0.442-0.25c0.3,0.3-0.035,0.517-0.035,0.74
		c0,0.125-0.505,0.388,0.023,0.514c0.189,0.045,0.96,0.053,1.091,0.183c0.363,0.364-0.315,0.996-0.07,1.425
		c0.194,0.34-0.022,0.38-0.279,0.555c-0.345,0.232,0.662,0.58,0.807,0.561c0.28-0.033,0.527,0.36,0.388,0.599
		c-0.096,0.161-0.654,0.261-0.559,0.115c0.312-0.475-0.563-0.43-0.04,0.194c-0.005,0.002-0.146,1.429-0.085,1.51
		c0.137,0.182,0.671-0.061,0.85-0.024c0.336,0.067,0.467,0.524,0.031,0.38c-0.571-0.191-0.11,0.668-0.078,0.834
		c0.078,0.42-0.326,1.051-0.097,1.313c0.29,0.329,0.072,0.302,0.072,0.609c0,0.449,0.597,0.358,0.597,0.752
		c0,0.221-0.168,0.347-0.168,0.573c0,0.368,0.705,0.822,0.307,1.133c-0.537,0.418-0.307,0.338-0.307,0.957
		c0,0.236,0.163,0.673,0.027,0.876c-0.021,0.032-1.4,1.096-0.587,1.096c0.443,0,0.419,0.639,0.775,0.836
		c0.294,0.164,0.836,0.062,0.836,0.62c0,0.621,0.597,0.339,0.032,0.9c-0.216,0.215,0.022,0.289,0.064,0.533
		c0.095,0.55,0.02,0.455,0.632,0.455c0.624,0,0.107-0.535,0.634-0.622c0.58-0.096,0.444,1.041-0.311,1.027
		c0.553,0.111-0.185,0.472,0.363,0.823c0.102,0.065,0.583-0.134,0.468,0.131c-0.104,0.235,0.021,0.162,0.075,0.288
		c0.057,0.122-0.397,0.334-0.112,0.763c0.179,0.266,0.105,0.518,0.341,0.754c0.443,0.441-1.305,0.682,0.095,0.682
		c0.287,0,1.221,0.313,0.972,0.686c-0.334,0.502,1.965,0.382,1.206,1.137c-0.395,0.397,0.249,0.733,0.521,0.87
		c0.236,0.118,0.002,0.58,0.405,0.58c0.6,0,0.043,0.626,0.323,0.907c-0.458-0.018-0.311,0.54-0.311,0.729
		c0,0.317,0.69,0.12,0.812,0.115c0.139-0.006,0.835,0.531,0.75,0.565c-0.405,0.165-1.27,0-1.705,0c-0.882,0-1.763,0-2.645,0
		c-1.734,0-3.469,0-5.202,0c-3.318,0-6.637-0.025-9.953-0.025c-5.875,0-11.768,0-17.612,0c-14.28,0-28.635,0-42.948,0
		c-6.376,0-12.819-0.024-19.223-0.023c-0.86,0-1.72,0.001-2.58-0.001c-0.172,0-0.092-4.577-0.092-5.078c0-3.886,0-7.771,0-11.655
		c0-0.99,0.278-1.181-0.708-1.181c-0.704,0-1.41,0-2.111,0c-1.242,0-2.5,0-3.751,0c-2.63,0-5.251,0-7.876,0
		c-3.412,0-6.843,0.023-10.264,0.023c-1.778,0-3.558,0-5.336,0c-0.439,0-0.219-4.051-0.219-4.653c0-7.14,0-14.315,0-21.471
		c0-3.096,0-6.198,0-9.309c0-0.931-0.069-0.875,0.925-0.875c0.924,0,1.848,0,2.771,0c1.873,0,3.759,0.082,5.629,0.012
		c7.569-0.282,15.198,0.036,22.771,0.036c7.526,0,15.058,0,22.586,0c5.253,0,10.399,0,15.624,0c3.806,0,7.61,0,11.415,0
		c0.262,0,2.302-0.087,2.309,0.083c0.028,0.549,0.604,0.716,0.77,1.111c0.071,0.168,1.39,0.354,1.705,0.75
		c0.279,0.35,0.916,0.103,1.15,0.336c0.141,0.141,0.501,0.374,0.71,0.444c0.455,0.156,1.508,0.297,1.693,0.841
		c0.166,0.502,1.112,0.813,1.574,0.709c0.611-0.137,1.297-0.254,1.593-0.945c0.179-0.417,0.088-0.941,0.688-0.941
		c0.723,0,1.459,0.453,2.251,0.453c0.506,0,1.083-0.375,1.56-0.191c0.15,0.058,1.386,0.111,1.386-0.059c0,0.619,1.3-0.18,1.302-0.18
		c0.323,0,0.618,0.191,0.932,0.191c0.164,0,0.404-0.031,0.545-0.124C111.065,10.735,110.911,11.1,111.172,11.095
		C111.205,11.095,111.146,11.095,111.172,11.095z"/>
</g>
</svg>
